Coordinates
version=1
nRows=11
nColumns=63
inDegrees=yes

Units are S.I. units (second, meters, Newtons, ...)
If the header above contains a line with 'inDegrees', this indicates whether rotational values are in degrees (yes) or radians (no).

endheader
time	pelvis_tilt	pelvis_list	pelvis_rotation	pelvis_tx	pelvis_ty	pelvis_tz	hip_flexion_r	hip_adduction_r	hip_rotation_r	knee_angle_r	knee_angle_r_beta	ankle_angle_r	subtalar_angle_r	mtp_angle_r	hip_flexion_l	hip_adduction_l	hip_rotation_l	knee_angle_l	knee_angle_l_beta	ankle_angle_l	subtalar_angle_l	mtp_angle_l	L5_S1_Flex_Ext	L5_S1_Lat_Bending	L5_S1_axial_rotation	L4_L5_Flex_Ext	L4_L5_Lat_Bending	L4_L5_axial_rotation	L3_L4_Flex_Ext	L3_L4_Lat_Bending	L3_L4_axial_rotation	L2_L3_Flex_Ext	L2_L3_Lat_Bending	L2_L3_axial_rotation	L1_L2_Flex_Ext	L1_L2_Lat_Bending	L1_L2_axial_rotation	L1_T12_Flex_Ext	L1_T12_Lat_Bending	L1_T12_axial_rotation	Abs_r3	Abs_r2	Abs_r1	Abs_t1	Abs_t2	neck_flexion	neck_bending	neck_rotation	arm_flex_r	arm_add_r	arm_rot_r	elbow_flex_r	pro_sup_r	wrist_flex_r	wrist_dev_r	arm_flex_l	arm_add_l	arm_rot_l	elbow_flex_l	pro_sup_l	wrist_flex_l	wrist_dev_l
      3.20338983	     -4.21720320	     -7.71203274	     72.58249159	      0.29315477	      0.57408177	      0.66512481	      9.27309711	      0.13717982	     -9.89438287	      8.36496068	      0.14599611	     26.43315558	     16.93766961	      0.00000000	      9.64849936	     -1.11319003	     -9.76234113	      9.20622295	      0.16067890	     24.34665960	      9.03321185	      0.00000000	      0.10333322	     -0.90682615	      1.64066025	      0.19190012	     -1.20607878	      1.74320152	      0.16976615	     -2.20485711	      1.74320152	      0.11809954	     -2.20485711	      1.43557772	      0.09595523	     -1.84919989	      1.33303646	      0.05904460	     -1.40467371	      1.23049519	      0.73809886	    -10.25819881	      9.12486013	      0.00000000	      0.00000000	     24.81535768	      2.60332609	    -13.16851520	      8.82668366	    -11.41090544	     53.93049512	     53.88281547	     20.16055479	     -3.90629743	     12.34124323	     12.90411191	    -15.53995553	     55.46875969	     58.85195072	     88.00950987	      3.52349124	      3.63376138
      3.22033898	     -4.39039827	     -7.39310240	     72.06896812	      0.29333600	      0.57484901	      0.66480383	      8.97007227	     -0.07804456	     -9.32535240	      8.26826780	      0.14430850	     26.24526837	     16.87757885	      0.00000000	      9.20386264	     -0.84588976	     -9.98821443	      8.99085842	      0.15692008	     24.25909170	      8.79316248	      0.00000000	      0.09546245	     -0.86559170	      1.76214831	      0.17728332	     -1.15123695	      1.87228258	      0.15683526	     -2.10459965	      1.87228258	      0.10910404	     -2.10459965	      1.54187977	      0.08864643	     -1.76511459	      1.43174550	      0.05454725	     -1.34080154	      1.32161123	      0.68187876	     -9.79174638	      9.80054025	      0.00000000	      0.00000000	     23.52965798	      0.90149701	    -14.13955190	      8.48888313	    -11.61443350	     53.70606682	     54.08515176	     19.95396423	     -3.81752036	     10.91821451	     13.24575769	    -15.31872352	     56.17955854	     58.51186843	     88.02603422	      4.28287364	      4.50656316
      3.23728814	     -4.70333082	     -7.09654796	     71.21152926	      0.29395692	      0.57553635	      0.66490705	      8.76885525	     -0.34458958	     -8.09424064	      8.11509107	      0.14163506	     25.97062172	     16.41807142	      0.00000000	      8.75287887	     -0.44890969	    -10.25713909	      8.62195489	      0.15048150	     23.89853928	      7.99291004	      0.00000000	      0.08204315	     -0.84064460	      1.96075007	      0.15236234	     -1.11805731	      2.08329695	      0.13478870	     -2.04394327	      2.08329695	      0.09376712	     -2.04394327	      1.71565631	      0.07618527	     -1.71424246	      1.59310943	      0.04687946	     -1.30215848	      1.47056255	      0.58602604	     -9.50953981	     10.90510365	      0.00000000	      0.00000000	     22.12426755	     -0.19227413	    -15.03755448	      8.10568037	    -11.81727262	     53.40061330	     54.44071235	     19.12615002	     -3.71078222	      9.10243453	     13.82709611	    -15.11055644	     57.17285719	     58.03915692	     87.94185200	      5.07972809	      4.60455613
      3.25423729	     -4.99294359	     -6.85824324	     70.90602201	      0.29392565	      0.57622494	      0.66451367	      8.48807659	     -0.67181666	     -7.71177316	      7.82552209	      0.13658113	     25.73410739	     16.42523503	      0.00000000	      8.49879612	     -0.06859856	    -10.41109976	      8.48966077	      0.14817253	     23.67648699	      7.82801926	      0.00000000	      0.08085774	     -0.79454940	      2.00037958	      0.15016092	     -1.05675070	      2.12540330	      0.13284119	     -1.93186740	      2.12540330	      0.09241232	     -1.93186740	      1.75033213	      0.07508450	     -1.62024513	      1.62530841	      0.04620212	     -1.23075701	      1.50028468	      0.57755878	     -8.98810167	     11.12551110	      0.00000000	      0.00000000	     20.08662641	     -0.75783471	    -13.96837834	      7.86980282	    -11.86714661	     53.01874557	     54.49565666	     18.86609242	     -3.64627597	      8.98945078	     14.05262913	    -14.87540475	     57.72272134	     57.57010144	     87.94535900	      5.20748093	      4.43297809
      3.27118644	     -5.25083969	     -6.67375284	     70.44994773	      0.29374296	      0.57682986	      0.66402247	      8.21921491	     -0.92624011	     -7.01899579	      7.42793144	      0.12964186	     25.41679478	     16.16207859	      0.00000000	      8.21711103	      0.28810263	    -10.67338577	      8.21613385	      0.14339859	     23.37909528	      7.57896004	      0.00000000	      0.07004435	     -0.73148204	      2.12433732	      0.13007936	     -0.97287111	      2.25710840	      0.11507586	     -1.77852543	      2.25710840	      0.08005369	     -1.77852543	      1.85879515	      0.06504318	     -1.49163817	      1.72602407	      0.04002334	     -1.13306568	      1.59325299	      0.50031979	     -8.27467112	     11.81492685	      0.00000000	      0.00000000	     18.42682163	     -0.53023442	    -11.98720633	      7.32822419	    -12.07829470	     51.89388408	     54.74554453	     18.14800234	     -3.56876111	      9.43758171	     14.60753932	    -14.36220706	     58.89570280	     56.64319379	     87.94478386	      5.29778437	      3.22630920
      3.28813559	     -5.55210199	     -6.56854416	     70.28756672	      0.29351797	      0.57725725	      0.66341856	      8.01800016	     -1.21232266	     -6.49396531	      7.05435906	      0.12312179	     25.14608868	     15.68290930	      0.00000000	      8.16294208	      0.63833448	    -10.87406799	      8.19321213	      0.14299853	     23.19069872	      7.60995047	      0.00000000	      0.05642840	     -0.67317577	      2.22480698	      0.10479318	     -0.89532377	      2.36385741	      0.09270621	     -1.63675957	      2.36385741	      0.06449202	     -1.63675957	      1.94670611	      0.05239941	     -1.37274003	      1.80765567	      0.03224319	     -1.04274927	      1.66860523	      0.40306240	     -7.61509895	     12.37370897	      0.00000000	      0.00000000	     17.27976510	      0.30177047	     -9.65027146	      6.65402253	    -12.11359344	     50.24037224	     54.95377793	     16.85978692	     -3.91286864	     10.64315648	     15.29114783	    -13.85854585	     60.37790019	     55.68347151	     88.03393732	      5.17107053	      1.79657654
      3.30508475	     -5.83211226	     -6.60279526	     70.40880455	      0.29320515	      0.57743167	      0.66239099	      7.85667285	     -1.46307882	     -6.43270123	      6.61342324	      0.11542601	     24.88709690	     15.42991194	      0.00000000	      8.26490226	      0.92697377	    -10.93705414	      8.22721531	      0.14359200	     23.10770061	      7.86976061	      0.00000000	      0.06401565	     -0.60891681	      2.28672139	      0.11888346	     -0.80985936	      2.42964148	      0.10517131	     -1.48052034	      2.42964148	      0.07316349	     -1.48052034	      2.00088122	      0.05944493	     -1.24170316	      1.85796113	      0.03657854	     -0.94321214	      1.71504104	      0.45725738	     -6.88818876	     12.71805837	      0.00000000	      0.00000000	     16.41494336	      1.01089752	     -7.42658626	      6.17827451	    -12.24365361	     49.29886502	     54.95235392	     16.19790874	     -4.17913477	     11.19599287	     15.91822561	    -13.36827308	     61.82223606	     54.95266592	     88.27313242	      5.47766564	      1.41475827
      3.32203390	     -6.11113107	     -6.64355189	     70.68681864	      0.29263058	      0.57742852	      0.66153332	      7.73415577	     -1.71368841	     -6.25088096	      6.26552348	      0.10935401	     24.67394922	     14.66416048	      0.00000000	      8.45851169	      1.18166032	    -11.37494746	      8.41295020	      0.14683368	     23.17290043	      8.83838981	      0.00000000	      0.05755148	     -0.54556889	      2.33380098	      0.10687885	     -0.72560662	      2.47966354	      0.09455133	     -1.32649619	      2.47966354	      0.06577559	     -1.32649619	      2.04207586	      0.05344230	     -1.11252408	      1.89621330	      0.03288492	     -0.84508621	      1.75035073	      0.41108447	     -6.17158437	     12.97990090	      0.00000000	      0.00000000	     16.59464252	      2.19257684	     -4.88198711	      5.68943598	    -12.37578316	     47.92465308	     55.19622014	     15.09039184	     -5.13876799	     12.81697947	     16.62447224	    -12.73834612	     63.45945584	     53.91257578	     88.34937990	      5.24036025	      0.12169165
      3.33898305	     -6.27081281	     -6.65294837	     71.08660368	      0.29172990	      0.57735990	      0.66064049	      7.56257700	     -1.90683122	     -6.48492606	      5.99839257	      0.10469170	     24.53062974	     14.26889789	      0.00000000	      8.57286926	      1.38710295	    -11.31498474	      8.54814262	      0.14919323	     23.24125112	      9.31780257	      0.00000000	      0.05252717	     -0.47656292	      2.33210775	      0.09754821	     -0.63382868	      2.47786448	      0.08629689	     -1.15871508	      2.47786448	      0.06003331	     -1.15871508	      2.04059428	      0.04877673	     -0.97180710	      1.89483754	      0.03001403	     -0.73819596	      1.74908081	      0.37519634	     -5.39097505	     12.97048366	      0.00000000	      0.00000000	     16.87763284	      2.59872645	     -3.19710130	      5.82504161	    -12.88024312	     48.26680453	     55.21606929	     15.29649475	     -5.14390505	     13.07777251	     17.31540600	    -12.10628087	     64.84575419	     53.11295165	     88.42225638	      5.85063335	      0.53540288
      3.35593220	     -6.35037352	     -6.62480675	     71.75809935	      0.29065117	      0.57732844	      0.65984244	      7.24628196	     -1.99449804	     -6.00688948	      5.60637359	      0.09784968	     24.18715661	     12.55085801	      0.00000000	      8.80033979	      1.34914773	    -12.96619548	      9.10640593	      0.15893677	     23.73623824	     12.45477508	      0.00000000	      0.04723312	     -0.40688651	      2.19633773	      0.08771664	     -0.54115905	      2.33360884	      0.07759930	     -0.98930385	      2.33360884	      0.05398274	     -0.98930385	      1.92179551	      0.04386068	     -0.82972296	      1.78452440	      0.02698901	     -0.63026720	      1.64725330	      0.33738148	     -4.60278154	     12.21537154	      0.00000000	      0.00000000	     17.24167734	      3.21808023	     -0.88343633	      6.42563429	    -13.25014697	     48.63659588	     54.16569064	     29.71987056	     -2.15201118	     13.20290642	     17.60166546	    -11.58603622	     65.36292361	     52.24694909	     88.30990647	      6.49603288	      0.50224543
      3.37288136	     -6.39470880	     -6.57306136	     72.34400041	      0.28916544	      0.57726694	      0.65926263	      7.05192839	     -2.14620584	     -6.43885237	      5.50222520	      0.09603195	     24.07037537	     12.14885457	      0.00000000	      8.87265854	      1.50771436	    -12.54758526	      9.27677643	      0.16191029	     23.74928000	     12.65442281	      0.00000000	      0.04265763	     -0.33866593	      2.07466801	      0.07921949	     -0.45042568	      2.20433476	      0.07008222	     -0.82343233	      2.20433476	      0.04875341	     -0.82343233	      1.81533451	      0.03961188	     -0.69060756	      1.68566776	      0.02437457	     -0.52459352	      1.55600100	      0.30469919	     -3.83105670	     11.53868105	      0.00000000	      0.00000000	     17.62805431	      3.18205830	      0.60382074	      6.94812424	    -13.86169752	     49.69870790	     54.27891441	     30.20302546	     -2.00971487	     13.50141655	     17.99563471	    -10.98632622	     66.03111244	     51.37398589	     88.05327770	      7.04927228	      0.70761762
